<svg
  x= "0px"
  y= "0px"
  width="400%"
  viewBox="0 0 764 611"
  enableBackground= "new 0 0 764 611"
  xmlSpace= "preserve"
  xmlns="http://www.w3.org/2000/svg"
  ref={svgRef}
  aria-labelledby={titleId}
  >
  <path
    opacity="1"
    stroke= "none"
    d=" M4.824648,336.000000  C4.786092,277.508148 4.786421,219.516205 4.621386,161.524704  C4.610564,157.721878 5.692938,155.693939 9.069140,153.747391  C93.275902,105.198227 177.413254,56.528572 261.494232,7.761834  C264.663727,5.923516 266.890076,5.877225 270.030823,7.724251  C286.954803,17.677086 304.059692,27.322128 321.002838,37.242981  C323.509674,38.710812 325.227112,38.586147 327.670868,37.153385  C344.582489,27.238279 361.638916,17.570007 378.540497,7.638120  C381.153809,6.102465 382.925812,6.001487 385.613556,7.582691  C402.535583,17.537886 419.658478,27.151928 436.565735,37.131592  C439.629120,38.939785 441.746796,38.692745 444.629486,36.994331  C461.234222,27.211252 477.995880,17.694319 494.588806,7.891614  C497.816376,5.984851 500.181458,5.812840 503.600525,7.789213  C587.727661,56.418568 671.929199,104.919403 756.174683,153.343628  C759.172180,155.066574 760.189270,156.946167 760.188049,160.360870  C760.153870,257.680481 760.209534,355.000183 760.374146,452.319641  C760.380371,455.971771 759.210571,457.866241 756.067139,459.680328  C671.737915,508.347961 587.467529,557.117554 503.231140,605.945740  C500.332153,607.626160 498.160614,607.687012 495.201813,605.946228  C478.423889,596.075012 461.453247,586.531128 444.684448,576.644714  C441.579193,574.813965 439.322418,574.625854 436.154022,576.497253  C418.281891,587.053223 400.270966,597.374268 382.150726,607.866089  C364.396881,597.635803 346.470795,587.427368 328.699280,576.956665  C325.412598,575.020142 323.016266,574.891479 319.679810,576.870789  C303.105438,586.703430 286.334106,596.203674 269.716614,605.964783  C267.021790,607.547729 265.077362,607.841919 262.127045,606.136902  C177.707397,557.348389 93.224464,508.669250 8.679515,460.098175  C5.551412,458.301086 4.819777,456.278198 4.826038,452.980133  C4.899759,414.153564 4.845493,375.326752 4.824648,336.000000  M257.146393,254.499985  C257.170776,317.141235 257.218506,379.782532 257.154877,442.423706  C257.151489,445.777527 258.009613,447.754303 261.099426,449.520416  C300.380859,471.973663 339.581329,494.568848 378.742554,517.231384  C381.318878,518.722290 383.135284,518.976868 385.875916,517.381470  C425.266632,494.450317 464.726288,471.637238 504.240814,448.920074  C507.101837,447.275299 507.982819,445.452606 507.960785,442.238129  C507.802155,419.081787 507.865265,395.923981 507.837128,372.766663  C507.755524,305.627472 507.663818,238.488281 507.577332,171.349091  C507.573944,168.724472 507.880280,166.337097 504.813995,164.581436  C464.826843,141.685822 424.933533,118.626358 384.946747,95.730057  C383.719788,95.027512 381.352661,95.009674 380.164948,95.734367  C341.249573,119.478729 299.805084,139.021912 262.968445,166.192993  C260.884155,167.730377 259.167511,170.450119 258.424469,172.958649  C257.359467,176.554062 257.001495,180.457779 256.956360,184.237213  C256.837799,194.161316 257.090820,204.089264 257.123474,214.015915  C257.166809,227.177155 257.141510,240.338608 257.146393,254.499985  M495.172913,28.436056  C483.161163,35.410378 471.149414,42.384701 458.612488,49.663952  C460.870087,50.987610 462.567474,51.997456 464.278381,52.983765  C522.077148,86.303337 579.855042,119.659325 637.729675,152.846603  C641.376404,154.937744 642.780212,157.092285 642.777344,161.349014  C642.712219,258.158447 642.773376,354.968079 642.978577,451.777283  C642.987305,455.905060 641.523865,457.951813 638.158875,459.882172  C605.014587,478.895813 571.944275,498.038544 538.867126,517.169006  C512.272278,532.550354 485.696808,547.965393 458.581726,563.673096  C468.897034,569.624878 479.243042,574.734436 488.601318,581.260376  C496.367249,586.676025 502.166046,585.992981 510.214050,581.285034  C586.037292,536.929260 662.152100,493.071594 738.210266,449.117950  C740.649170,447.708527 742.252319,446.462982 742.246277,443.128052  C742.081482,351.983978 742.064880,260.839661 741.877686,169.695694  C741.874207,168.006256 740.539978,165.572098 739.101135,164.740097  C660.174927,119.100327 581.179993,73.579102 502.109467,28.189810  C500.519440,27.277092 497.953918,28.063761 495.172913,28.436056  M160.218216,526.284607  C194.388962,545.970520 228.579697,565.621948 262.690125,585.411804  C265.241333,586.891968 267.006836,586.776550 269.429474,585.325867  C278.564850,579.855591 287.835083,574.610596 297.049225,569.271606  C299.831512,567.659485 302.595825,566.016296 305.912567,564.067688  C303.546417,562.655151 302.010101,561.709778 300.447876,560.809509  C242.490784,527.409058 184.545700,493.987732 126.535530,460.679749  C123.164452,458.744141 121.634300,456.752655 121.635017,452.596252  C121.651825,355.606323 121.519928,258.616333 121.281982,161.626648  C121.272568,157.787186 122.427826,155.728439 125.767487,153.806778  C174.157700,125.962662 222.459518,97.964874 270.783539,70.005722  C282.417725,63.274460 294.055756,56.549873 306.067413,49.605186  C293.814514,42.548595 281.919495,35.899551 270.260376,28.859858  C266.796326,26.768276 264.311249,26.864456 260.846649,28.875124  C182.986542,74.060814 105.062546,119.136551 27.093058,164.133301  C23.996620,165.920288 22.744411,167.766678 22.750553,171.472748  C22.900227,261.797028 22.926897,352.121582 22.845346,442.445923  C22.842047,446.102173 23.986462,447.998932 27.144037,449.806213  C71.335152,475.099884 115.439362,500.545410 160.218216,526.284607  M139.730835,270.499969  C139.756470,327.815277 139.819839,385.130646 139.719254,442.445740  C139.712845,446.100739 140.799164,448.103821 144.007156,449.824982  C152.066498,454.148895 159.914581,458.866943 167.843414,463.433777  C218.443726,492.578308 269.064514,521.687439 319.595703,550.951355  C323.090424,552.975220 325.652649,553.022705 329.055481,550.896606  C336.811188,546.050720 344.834503,541.633118 352.746704,537.037476  C356.526215,534.842224 360.300385,532.637756 364.604889,530.129944  C362.289856,528.742798 360.754608,527.792236 359.191162,526.890625  C320.713013,504.700867 282.265503,482.457489 243.695419,460.428680  C240.126892,458.390564 239.075348,456.166351 239.077759,452.236816  C239.137283,355.266510 239.091965,258.296143 238.941742,161.325943  C238.936172,157.729782 239.922104,155.782532 243.120163,153.950195  C278.001434,133.965134 312.777222,113.795898 347.574982,93.665085  C353.257202,90.377861 358.906555,87.033813 364.908203,83.518593  C351.763153,75.929527 339.139587,68.519173 326.338959,61.428501  C324.962341,60.665958 322.224487,61.186066 320.675690,62.078667  C261.722412,96.054352 202.848602,130.167923 143.898209,164.148636  C140.775970,165.948395 139.572174,167.862320 139.591492,171.530365  C139.763367,204.186234 139.714310,236.843262 139.730835,270.499969  M408.293030,78.774506  C405.794464,80.241997 403.295929,81.709496 400.411072,83.403885  C402.284882,84.528610 403.551178,85.315521 404.842133,86.059639  C443.611786,108.406960 482.358917,130.793716 521.198486,153.018845  C524.659058,154.999069 525.942139,157.151001 525.938843,161.195587  C525.858704,257.994324 525.897034,354.793274 526.085388,451.591827  C526.093750,455.893433 524.631714,457.986267 521.037659,460.047791  C482.276672,482.280762 443.622772,504.700439 404.945679,527.079590  C403.562225,527.880127 402.241577,528.789062 400.418274,529.948425  C402.069366,531.014587 403.242462,531.845825 404.482391,532.561218  C415.289246,538.796387 426.163055,544.918457 436.884216,551.297302  C439.512756,552.861267 441.406403,552.863281 444.072937,551.315063  C502.914062,517.150818 561.801880,483.066895 620.744019,449.077240  C623.709595,447.367096 624.830261,445.555786 624.821167,442.091003  C624.583313,351.624023 624.444580,261.156738 624.417603,170.689453  C624.416504,167.142609 623.115173,165.428391 620.193909,163.750824  C561.481079,130.033600 502.816895,96.231537 444.196411,62.353977  C441.405823,60.741257 439.334961,60.591999 436.509491,62.306000  C427.408081,67.827202 418.117096,73.035866 408.293030,78.774506  M360.274017,574.212769  C366.614288,577.864441 373.016724,581.414124 379.261658,585.222107  C381.489319,586.580444 383.061188,586.702637 385.429047,585.277893  C396.113647,578.849060 406.975525,572.715027 417.760803,566.452881  C419.065094,565.695557 420.292267,564.805420 422.027771,563.666748  C409.000275,556.152954 396.804962,549.014404 384.455536,542.153259  C383.174988,541.441833 380.678680,541.843384 379.254120,542.638367  C368.814819,548.463623 358.500061,554.512329 348.159332,560.513550  C346.409637,561.528992 344.724121,562.655090 342.572266,564.003662  C348.712524,567.569580 354.163208,570.734985 360.274017,574.212769  M391.900238,67.397827  C401.770844,61.685730 411.641479,55.973633 422.255890,49.831108  C408.298615,41.769119 395.148376,34.173290 381.899139,26.520277  C368.806732,34.113605 355.835175,41.636845 342.341553,49.462872  C353.319611,55.802799 363.797058,61.314449 373.671448,67.751244  C379.950592,71.844421 385.385986,73.135117 391.900238,67.397827  z"
    fill="rgba(25,38,83,0.421)"
    />
</svg>
